<svg xmlns="http://www.w3.org/2000/svg" fill="none" viewBox="0 0 14 14"><path fill="currentColor" d="M1.5 0C0.671573 0 0 0.671573 0 1.5V4.5C0 5.32843 0.671573 6 1.5 6H4.5C5.32843 6 6 5.32843 6 4.5V1.5C6 0.671573 5.32843 0 4.5 0H1.5Z"></path><path fill="currentColor" d="M9.5 0C8.67157 0 8 0.671573 8 1.5V4.5C8 5.32843 8.67157 6 9.5 6H12.5C13.3284 6 14 5.32843 14 4.5V1.5C14 0.671573 13.3284 0 12.5 0H9.5Z"></path><path fill="currentColor" d="M1.5 8C0.671573 8 0 8.67157 0 9.5V12.5C0 13.3284 0.671573 14 1.5 14H4.5C5.32843 14 6 13.3284 6 12.5V9.5C6 8.67157 5.32843 8 4.5 8H1.5Z"></path><path fill="currentColor" d="M9.5 8C8.67157 8 8 8.67157 8 9.5V12.5C8 13.3284 8.67157 14 9.5 14H12.5C13.3284 14 14 13.3284 14 12.5V9.5C14 8.67157 13.3284 8 12.5 8H9.5Z"></path></svg>