<svg width="200" height="200" viewBox="0 0 200 200" fill="none" xmlns="http://www.w3.org/2000/svg">
<g clip-path="url(#clip0_8_21)">
<path d="M169.572 40.8975C156.69 34.8722 142.917 30.4934 128.517 28C126.748 31.1964 124.682 35.4957 123.258 38.9157C107.95 36.6143 92.7833 36.6143 77.7573 38.9157C76.333 35.4957 74.22 31.1964 72.4357 28C58.0202 30.4934 44.2307 34.8883 31.3491 40.9294C5.36674 80.1805 -1.67664 118.457 1.84506 156.19C19.0779 169.055 35.7786 176.87 52.1975 181.984C56.2514 176.406 59.867 170.477 62.9817 164.228C57.0496 161.975 51.368 159.194 45.9995 155.966C47.4237 154.911 48.8169 153.808 50.1628 152.673C82.9067 167.984 118.484 167.984 150.837 152.673C152.198 153.808 153.591 154.911 155 155.966C149.616 159.21 143.918 161.991 137.986 164.245C141.101 170.477 144.701 176.423 148.77 182C165.205 176.886 181.921 169.071 199.154 156.19C203.286 112.448 192.095 74.5229 169.572 40.8975ZM67.4426 132.984C57.6132 132.984 49.5523 123.811 49.5523 112.639C49.5523 101.468 57.4411 92.2787 67.4426 92.2787C77.4444 92.2787 85.505 101.452 85.3329 112.639C85.3484 123.811 77.4444 132.984 67.4426 132.984ZM133.557 132.984C123.727 132.984 115.666 123.811 115.666 112.639C115.666 101.468 123.555 92.2787 133.557 92.2787C143.558 92.2787 151.619 101.452 151.447 112.639C151.447 123.811 143.558 132.984 133.557 132.984Z" fill="#5865F2"/>
</g>
<defs>
<clipPath id="clip0_8_21">
<rect width="200" height="200" fill="white"/>
</clipPath>
</defs>
</svg>
