<svg width="200" height="200" viewBox="0 0 200 200" fill="none" xmlns="http://www.w3.org/2000/svg">
<circle cx="100" cy="100" r="100" fill="#44AF6F"/>
<g clip-path="url(#clip0_9_99)">
<path d="M136.929 61.3926H63.0714C60.4003 61.3926 57.8386 62.4537 55.9499 64.3424C54.0611 66.2312 53 68.7929 53 71.464V128.535C53 131.207 54.0611 133.768 55.9499 135.657C57.8386 137.546 60.4003 138.607 63.0714 138.607H136.929C139.6 138.607 142.161 137.546 144.05 135.657C145.939 133.768 147 131.207 147 128.535V71.464C147 68.7929 145.939 66.2312 144.05 64.3424C142.161 62.4537 139.6 61.3926 136.929 61.3926V61.3926ZM136.19 89.1897L109.333 105.304C106.496 107.016 103.246 107.92 99.9329 107.92C96.6198 107.92 93.3696 107.016 90.5329 105.304L63.6757 89.1897C62.5897 88.4704 61.8246 87.3582 61.5413 86.0867C61.258 84.8152 61.4784 83.4834 62.1563 82.371C62.8341 81.2586 63.9167 80.4521 65.1766 80.121C66.4365 79.79 67.7757 79.96 68.9129 80.5954L95.77 96.6426C97.0311 97.3867 98.4686 97.7792 99.9329 97.7792C101.397 97.7792 102.835 97.3867 104.096 96.6426L130.953 80.5954C132.09 79.96 133.429 79.79 134.689 80.121C135.949 80.4521 137.032 81.2586 137.709 82.371C138.387 83.4834 138.608 84.8152 138.324 86.0867C138.041 87.3582 137.276 88.4704 136.19 89.1897V89.1897Z" fill="white"/>
</g>
<defs>
<clipPath id="clip0_9_99">
<rect width="94" height="94" fill="white" transform="translate(53 53)"/>
</clipPath>
</defs>
</svg>
