<svg width="200" height="200" viewBox="0 0 200 200" fill="none" xmlns="http://www.w3.org/2000/svg">
<path d="M183.06 129.268C168.072 173.357 120.037 197 75.7701 182.076C31.5016 167.15 7.76444 119.31 22.75 75.2209C34.9468 39.3357 69.0344 16.9998 105.167 17.974L93.5847 31.6017C72.1513 35.4623 53.6422 50.0409 46.3686 71.4429C35.5461 103.285 53.6867 138.173 86.887 149.367C120.087 160.56 155.776 143.823 166.6 111.981C173.851 90.6487 168.102 67.9528 153.535 51.9257L152.646 34.0329C181.844 55.1404 195.235 93.4441 183.06 129.268V129.268ZM124.147 106.153C116.136 113.967 106.296 113.254 99.897 111.096C93.4958 108.935 85.2438 103.552 83.6472 92.4975C82.0506 81.4429 89.2756 72.4615 89.2756 72.4615L105.019 52.9634L114.188 41.8262L122.059 32.1205C122.059 32.1205 125.671 27.3027 126.7 26.3094C126.904 26.1104 127.113 25.9812 127.319 25.8817L127.469 25.8075L127.494 25.7969C127.928 25.6106 128.426 25.5703 128.907 25.7334C129.379 25.8922 129.743 26.2141 129.974 26.6102L130.023 26.6885L130.065 26.7775C130.177 26.9871 130.27 27.2285 130.315 27.5271C130.525 28.9397 130.457 34.9541 130.457 34.9541L130.789 47.4234L131.28 61.8177L131.895 86.8325C131.895 86.8325 132.157 98.3361 124.147 106.153V106.153Z" fill="#1875F0"/>
</svg>
