<svg width="200" height="200" viewBox="0 0 200 200" fill="none" xmlns="http://www.w3.org/2000/svg">
<g clip-path="url(#clip0_15_48)">
<path d="M173.971 76.3814C175.625 78.0378 177.576 79.3544 179.731 80.2718C184.227 82.1576 189.291 82.1576 193.795 80.2718C198.138 78.42 201.599 74.9628 203.439 70.6137C205.322 66.1117 205.322 61.0406 203.439 56.5301C201.59 52.1809 198.138 48.7152 193.795 46.8719C189.299 44.9862 184.235 44.9862 179.731 46.8719C175.388 48.7237 171.927 52.1809 170.086 56.5301C168.203 61.0321 168.203 66.1032 170.086 70.6137C171.003 72.7628 172.326 74.725 173.971 76.3814ZM168.678 93.1833V147.726H177.755C180.876 147.709 183.981 147.42 187.043 146.842C190.122 146.299 193.091 145.262 195.839 143.767C198.435 142.357 200.674 140.37 202.396 137.974C204.203 135.315 205.11 132.147 204.983 128.928V93.1833H168.678ZM139.261 70.3164C141.67 70.3334 144.062 69.8492 146.285 68.8979C150.628 67.0461 154.08 63.5889 155.921 59.2398C157.804 54.7377 157.804 49.6666 155.912 45.1561C154.063 40.807 150.611 37.3413 146.268 35.498C144.045 34.5466 141.653 34.0624 139.236 34.0794C136.835 34.0624 134.46 34.5466 132.255 35.498C130.609 36.203 130.092 37.1204 127.827 38.2247V66.1712C130.1 67.2839 130.609 68.1928 132.255 68.8979C134.469 69.8577 136.852 70.3334 139.261 70.3164ZM127.827 162.149C130.1 162.642 130.915 163.024 132.526 163.245C134.291 163.5 136.072 163.627 137.853 163.636C140.602 163.619 143.35 163.33 146.039 162.752C148.779 162.2 151.408 161.172 153.8 159.72C156.15 158.276 158.126 156.305 159.585 153.969C161.197 151.242 161.986 148.099 161.867 144.931V81.8178H127.827V162.149V162.149ZM3 179.546L121.016 200V0L3 20.4544V179.546Z" fill="#5558AF"/>
<path d="M89.2406 61.3633L34.7751 64.6846V77.2648L55.2007 76.4409V134.772L68.815 135.57V75.9057L89.2406 74.9968V61.3633Z" fill="white"/>
</g>
<defs>
<clipPath id="clip0_15_48">
<rect width="200" height="200" fill="white"/>
</clipPath>
</defs>
</svg>
