<svg width="200" height="200" viewBox="0 0 200 200" fill="none" xmlns="http://www.w3.org/2000/svg">
<circle cx="100" cy="100" r="100" fill="#6842FF"/>
<g clip-path="url(#clip0_8_13)">
<path d="M100 144.114C103.481 146.355 107.624 147.337 111.741 146.898C115.857 146.458 119.699 144.623 122.628 141.697L125.179 139.145C126.311 138.001 126.945 136.457 126.945 134.848C126.945 133.239 126.311 131.695 125.179 130.551L114.369 120.144C113.237 119.016 111.704 118.383 110.105 118.383C108.507 118.383 106.974 119.016 105.842 120.144V120.144C104.698 121.275 103.154 121.91 101.545 121.91C99.9357 121.91 98.3915 121.275 97.2476 120.144L79.8576 102.754C78.7259 101.61 78.0912 100.066 78.0912 98.4566C78.0912 96.8475 78.7259 95.3034 79.8576 94.1595V94.1595C80.9851 93.027 81.6182 91.494 81.6182 89.8959C81.6182 88.2978 80.9851 86.7648 79.8576 85.6323L69.4505 74.8895C68.3066 73.7578 66.7624 73.123 65.1533 73.123C63.5442 73.123 62.0001 73.7578 60.8562 74.8895L58.3048 77.4409C55.3952 80.3652 53.57 84.1943 53.1305 88.296C52.6911 92.3977 53.6636 96.5266 55.8876 100.001C67.6085 117.413 82.5882 132.393 100 144.114V144.114Z" fill="white"/>
<path d="M141.965 106.714C140.635 106.697 139.364 106.161 138.423 105.22C137.483 104.279 136.946 103.009 136.929 101.679C136.911 91.4448 132.838 81.6352 125.602 74.3988C118.365 67.1624 108.556 63.0892 98.3218 63.0714C96.9917 63.054 95.7209 62.5179 94.7803 61.5773C93.8397 60.6366 93.3035 59.3659 93.2861 58.0357C93.3035 56.7056 93.8397 55.4348 94.7803 54.4942C95.7209 53.5535 96.9917 53.0174 98.3218 53C111.227 53.0178 123.598 58.1521 132.723 67.2772C141.848 76.4024 146.983 88.7737 147 101.679C146.983 103.009 146.447 104.279 145.506 105.22C144.566 106.161 143.295 106.697 141.965 106.714V106.714Z" fill="white"/>
<path d="M123.5 108.393C122.17 108.376 120.899 107.84 119.959 106.899C119.018 105.959 118.482 104.688 118.465 103.358C118.447 97.5757 116.142 92.0357 112.054 87.9472C107.965 83.8587 102.425 81.554 96.6431 81.5363C95.3076 81.5363 94.0267 81.0057 93.0823 80.0613C92.138 79.117 91.6074 77.8361 91.6074 76.5006C91.6074 75.165 92.138 73.8841 93.0823 72.9398C94.0267 71.9954 95.3076 71.4648 96.6431 71.4648C105.102 71.4648 113.214 74.825 119.195 80.806C125.176 86.7871 128.536 94.8992 128.536 103.358C128.519 104.688 127.982 105.959 127.042 106.899C126.101 107.84 124.83 108.376 123.5 108.393Z" fill="white"/>
</g>
<defs>
<clipPath id="clip0_8_13">
<rect width="94" height="94" fill="white" transform="translate(53 53)"/>
</clipPath>
</defs>
</svg>
