<svg width="200" height="200" viewBox="0 0 200 200" fill="none" xmlns="http://www.w3.org/2000/svg">
<path d="M180.965 102.868C180.965 94.0656 178.338 85.6286 173.152 77.7825C168.497 70.7404 161.974 64.5071 153.769 59.2532C137.923 49.1136 117.096 43.5275 95.1286 43.5275C87.7909 43.5275 80.5578 44.1486 73.5428 45.3799C69.191 41.2984 64.0955 37.6263 58.704 34.724C29.9008 20.7385 6.01465 34.3953 6.01465 34.3953C6.01465 34.3953 28.2226 52.672 24.6111 68.6914C14.6765 78.5659 9.29043 90.4723 9.29043 102.868C9.29043 102.906 9.29248 102.946 9.29248 102.986C9.29248 103.025 9.29043 103.064 9.29043 103.105C9.29043 115.501 14.6744 127.407 24.6111 137.28C28.2226 153.3 6.01465 171.578 6.01465 171.578C6.01465 171.578 29.9008 185.232 58.704 171.249C64.0948 168.347 69.1889 164.673 73.5428 160.593C80.5592 161.823 87.7909 162.443 95.1286 162.443C117.097 162.443 137.922 156.861 153.769 146.721C161.974 141.468 168.497 135.237 173.153 128.191C178.338 120.347 180.966 111.905 180.966 103.107C180.966 103.066 180.964 103.029 180.964 102.988L180.965 102.868V102.868Z" fill="#C1272D"/>
<path d="M95.1294 55.9707C135.807 55.9707 168.784 77.073 168.784 103.103C168.784 129.131 135.807 150.235 95.1294 150.235C86.0718 150.235 77.397 149.186 69.3839 147.273C61.2389 157.088 43.3219 170.735 25.9162 166.325C31.5777 160.233 39.9654 149.94 38.1703 132.984C27.7373 124.853 21.4756 114.445 21.4756 103.103C21.4735 77.0709 54.4508 55.9707 95.1294 55.9707" fill="white"/>
<path d="M95.1288 114.423C100.533 114.423 104.914 110.035 104.914 104.62C104.914 99.2067 100.533 94.8184 95.1288 94.8184C89.725 94.8184 85.3445 99.2067 85.3445 104.62C85.3445 110.035 89.725 114.423 95.1288 114.423ZM129.147 114.423C134.551 114.423 138.932 110.035 138.932 104.62C138.932 99.2067 134.551 94.8184 129.147 94.8184C123.743 94.8184 119.363 99.2067 119.363 104.62C119.363 110.035 123.743 114.423 129.147 114.423ZM61.1091 114.421C66.5122 114.421 70.892 110.033 70.892 104.621C70.892 99.2081 66.5122 94.8197 61.1098 94.8197C55.706 94.8197 51.3262 99.2081 51.3262 104.62C51.3262 110.033 55.706 114.421 61.1091 114.421V114.421Z" fill="#C1272D"/>
<path d="M95.1292 144.035C86.0716 144.035 77.3968 143.124 69.3837 141.467C62.1923 148.979 47.3802 159.076 32.0301 158.705C30.0073 161.776 27.8089 164.287 25.916 166.325C43.3217 170.735 61.2387 157.089 69.3837 147.273C77.3974 149.187 86.0729 150.235 95.1292 150.235C135.48 150.235 168.248 129.467 168.77 103.725C168.248 126.038 135.48 144.034 95.1292 144.034V144.035Z" fill="#CCCCCC"/>
</svg>
