<svg width="200" height="200" viewBox="0 0 200 200" fill="none" xmlns="http://www.w3.org/2000/svg">
<g clip-path="url(#clip0_15_30)">
<path fill-rule="evenodd" clip-rule="evenodd" d="M73.3822 0C62.3486 0.00815494 53.4189 8.96228 53.4271 19.9959C53.4189 31.0296 62.3568 39.9837 73.3904 39.9918H93.3537V20.0041C93.3619 8.97044 84.424 0.0163099 73.3822 0C73.3904 0 73.3904 0 73.3822 0V0ZM73.3822 53.3333H20.1631C9.12945 53.3415 0.191635 62.2956 0.19979 73.3293C0.18348 84.3629 9.1213 93.317 20.1549 93.3333H73.3822C84.4159 93.3252 93.3537 84.371 93.3455 73.3374C93.3537 62.2956 84.4159 53.3415 73.3822 53.3333V53.3333Z" fill="#36C5F0"/>
<path fill-rule="evenodd" clip-rule="evenodd" d="M199.8 73.3293C199.808 62.2956 190.87 53.3415 179.837 53.3333C168.803 53.3415 159.865 62.2956 159.874 73.3293V93.3333H179.837C190.87 93.3252 199.808 84.371 199.8 73.3293ZM146.573 73.3293V19.9959C146.581 8.97044 137.651 0.0163099 126.618 0C115.584 0.00815494 106.646 8.96228 106.654 19.9959V73.3293C106.638 84.3629 115.576 93.317 126.61 93.3333C137.643 93.3252 146.581 84.371 146.573 73.3293Z" fill="#2EB67D"/>
<path fill-rule="evenodd" clip-rule="evenodd" d="M126.61 200C137.643 199.992 146.581 191.038 146.573 180.004C146.581 168.97 137.643 160.016 126.61 160.008H106.646V180.004C106.638 191.03 115.576 199.984 126.61 200ZM126.61 146.659H179.837C190.87 146.65 199.808 137.696 199.8 126.663C199.816 115.629 190.879 106.675 179.845 106.659H126.618C115.584 106.667 106.646 115.621 106.654 126.654C106.646 137.696 115.576 146.65 126.61 146.659V146.659Z" fill="#ECB22E"/>
<path fill-rule="evenodd" clip-rule="evenodd" d="M0.199774 126.663C0.191619 137.696 9.12944 146.65 20.1631 146.658C31.1967 146.65 40.1345 137.696 40.1264 126.663V106.667H20.1631C9.12944 106.675 0.191619 115.629 0.199774 126.663ZM53.4271 126.663V179.996C53.4108 191.03 62.3486 199.984 73.3822 200C84.4159 199.992 93.3537 191.038 93.3455 180.004V126.679C93.3618 115.645 84.424 106.691 73.3904 106.675C62.3486 106.675 53.4189 115.629 53.4271 126.663C53.4271 126.671 53.4271 126.663 53.4271 126.663Z" fill="#E01E5A"/>
</g>
<defs>
<clipPath id="clip0_15_30">
<rect width="200" height="200" fill="white"/>
</clipPath>
</defs>
</svg>
