<svg width="200" height="200" viewBox="0 0 200 200" fill="none" xmlns="http://www.w3.org/2000/svg">
<g clip-path="url(#clip0_15_63)">
<path d="M167.389 178.241L115.045 135.29H43.042C19.3114 135.29 0 115.558 0 91.3081V47.7412C0 23.4922 19.3114 3.75916 43.042 3.75916H156.958C180.689 3.75916 200 23.4922 200 47.7412V91.3081C200 111.712 186.322 129.144 167.389 133.966V178.241ZM43.042 16.2596C26.2025 16.2596 12.5 30.3832 12.5 47.7416V91.3086C12.5 108.667 26.2025 122.791 43.042 122.791H119.513L154.889 151.813V123.224L160.407 122.571C175.855 120.752 187.5 107.312 187.5 91.3086V47.7412C187.5 30.3828 173.798 16.2592 156.958 16.2592H43.042V16.2596Z" fill="white"/>
<path d="M35.6261 76.9281C37.8539 78.2832 42.4743 79.8763 46.0571 79.8763C49.7192 79.8763 51.2331 78.6008 51.2331 76.611C51.2331 74.615 50.0367 73.6628 45.502 72.1493C37.4576 69.4395 34.351 65.0632 34.4302 60.4428C34.4302 53.1979 40.6437 47.7048 50.2751 47.7048C54.8159 47.7048 58.8812 48.7363 61.2673 49.9326L59.1188 58.2942C57.3669 57.3359 54.0225 56.0603 50.6776 56.0603C47.7294 56.0603 46.0571 57.2567 46.0571 59.2465C46.0571 61.0775 47.5706 62.0359 52.3498 63.7081C59.7535 66.2534 62.86 70.0008 62.9396 75.7322C62.9396 82.9771 57.2082 88.3114 46.0571 88.3114C40.9608 88.3114 36.4196 87.2003 33.478 85.6077L35.6261 76.9281Z" fill="white"/>
<path d="M70.2576 60.9983C70.2576 56.1461 70.0988 52.0016 69.94 48.5775H80.1331L80.6886 53.8326H80.9265C82.5988 51.3669 86.0229 47.7048 92.7122 47.7048C97.7294 47.7048 101.709 50.2501 103.381 54.3089H103.54C104.974 52.3191 106.726 50.7261 108.557 49.6154C110.712 48.3399 113.098 47.7052 115.967 47.7052C123.45 47.7052 129.108 52.9603 129.108 64.5816V87.5187H117.322V66.3387C117.322 60.6808 115.485 57.4154 111.585 57.4154C108.802 57.4154 106.806 59.3256 106.012 61.6391C105.695 62.5118 105.536 63.7877 105.536 64.7457V87.5179H93.7506V65.6979C93.7506 60.7599 91.9988 57.4154 88.1718 57.4154C85.0714 57.4154 83.2339 59.8081 82.52 61.7979C82.1233 62.7501 82.0441 63.8669 82.0441 64.8252V87.5183H70.2584V60.9983H70.2576Z" fill="white"/>
<path d="M138.647 76.9281C140.875 78.2832 145.496 79.8763 149.078 79.8763C152.74 79.8763 154.254 78.6008 154.254 76.611C154.254 74.615 153.058 73.6628 148.523 72.1493C140.478 69.4395 137.372 65.0632 137.451 60.4428C137.451 53.1979 143.664 47.7048 153.296 47.7048C157.837 47.7048 161.896 48.7363 164.288 49.9326L162.14 58.2942C160.388 57.3359 157.043 56.0603 153.698 56.0603C150.75 56.0603 149.078 57.2567 149.078 59.2465C149.078 61.0775 150.591 62.0359 155.371 63.7081C162.774 66.2534 165.881 70.0008 165.96 75.7322C165.96 82.9771 160.229 88.3114 149.078 88.3114C143.982 88.3114 139.44 87.2004 136.499 85.6077L138.647 76.9281Z" fill="white"/>
</g>
<defs>
<clipPath id="clip0_15_63">
<rect width="200" height="200" fill="white"/>
</clipPath>
</defs>
</svg>
