<svg width="200" height="200" viewBox="0 0 200 200" fill="none" xmlns="http://www.w3.org/2000/svg">
<g clip-path="url(#clip0_8_69)">
<path fill-rule="evenodd" clip-rule="evenodd" d="M193.313 77.5118C193.313 76.6769 192.634 76 191.796 76H150.079C149.241 76 148.562 76.6769 148.562 77.5118V122.488C148.562 123.323 149.241 124 150.079 124H191.796C192.634 124 193.313 123.323 193.313 122.488V77.5118ZM167.596 92.9199C168.589 93.9703 169.83 94.4955 171.319 94.4955C172.773 94.4955 173.979 93.9703 174.936 92.9199C175.93 91.8695 176.426 90.5753 176.426 89.0372C176.426 87.4991 175.93 86.2049 174.936 85.1545C173.979 84.1041 172.773 83.5789 171.319 83.5789C169.83 83.5789 168.589 84.1041 167.596 85.1545C166.638 86.2049 166.16 87.4991 166.16 89.0372C166.16 90.5753 166.638 91.8695 167.596 92.9199ZM175.695 101.302C174.994 99.9167 173.881 99.0527 172.355 98.7094C170.967 98.3974 169.702 98.6497 168.559 99.4665C167.416 100.283 166.694 101.444 166.391 102.948C166.111 104.343 166.295 105.592 166.944 106.697C167.291 107.264 167.729 107.737 168.258 108.118C169.021 108.668 169.476 109.679 168.903 110.425C168.246 111.28 167.441 112.055 166.489 112.75C165.942 113.126 165.61 113.607 165.492 114.194C165.367 114.818 165.516 115.427 165.941 116.021C166.358 116.652 166.913 117.045 167.607 117.201C168.301 117.357 168.963 117.218 169.594 116.785C173.107 114.277 175.291 110.895 176.146 106.638C176.581 104.473 176.43 102.694 175.695 101.302Z" fill="#007BFF"/>
<path d="M11.426 113.866C9.61483 113.866 8.03535 113.591 6.68753 113.039C5.36077 112.488 4.36043 111.736 3.68652 110.782L6.30845 108.334C6.94024 109.033 7.67733 109.584 8.51973 109.987C9.38318 110.369 10.3624 110.56 11.4575 110.56C12.3842 110.56 13.1107 110.422 13.6372 110.146C14.1637 109.849 14.427 109.404 14.427 108.811C14.427 108.345 14.2479 108.027 13.8899 107.857C13.5319 107.666 13.037 107.518 12.4052 107.412L9.78329 106.999C9.04621 106.893 8.36177 106.734 7.72997 106.522C7.09819 106.288 6.55064 105.981 6.08732 105.6C5.62401 105.218 5.25547 104.752 4.98169 104.201C4.70792 103.65 4.57103 102.982 4.57103 102.198C4.57103 100.481 5.22388 99.1348 6.52958 98.1598C7.83529 97.1848 9.66747 96.6973 12.0262 96.6973C13.6267 96.6973 14.985 96.9198 16.1012 97.365C17.2384 97.7889 18.144 98.4035 18.8179 99.209L16.4803 101.88C15.9959 101.35 15.3746 100.905 14.6165 100.544C13.8583 100.184 12.9422 100.004 11.8682 100.004C10.0571 100.004 9.15149 100.555 9.15149 101.657C9.15149 102.145 9.3305 102.484 9.68852 102.675C10.0465 102.844 10.5415 102.982 11.1732 103.088L13.7636 103.501C14.5007 103.607 15.1851 103.777 15.8169 104.01C16.4487 104.222 16.9962 104.519 17.4595 104.9C17.9439 105.282 18.323 105.748 18.5968 106.299C18.8706 106.85 19.0074 107.518 19.0074 108.302C19.0074 110.019 18.344 111.376 17.0173 112.372C15.7116 113.368 13.8478 113.866 11.426 113.866Z" fill="#007BFF"/>
<path d="M21.6807 97.0788H26.3559V100.067H26.577C26.9771 99.0924 27.5563 98.287 28.3145 97.6511C29.0726 97.0152 30.1045 96.6973 31.4102 96.6973C32.3158 96.6973 33.1371 96.8669 33.8742 97.206C34.6323 97.5451 35.2747 98.0644 35.8011 98.7639C36.3487 99.4634 36.7699 100.354 37.0647 101.435C37.3806 102.516 37.5386 103.798 37.5386 105.282C37.5386 106.765 37.3806 108.048 37.0647 109.129C36.7699 110.21 36.3487 111.1 35.8011 111.799C35.2747 112.499 34.6323 113.018 33.8742 113.357C33.1371 113.697 32.3158 113.866 31.4102 113.866C30.1045 113.866 29.0726 113.559 28.3145 112.944C27.5563 112.308 26.9771 111.492 26.577 110.496H26.3559V119.843H21.6807V97.0788ZM29.3885 110.21C30.4415 110.21 31.2523 109.892 31.8209 109.256C32.3895 108.599 32.6738 107.698 32.6738 106.553V104.01C32.6738 102.865 32.3895 101.975 31.8209 101.339C31.2523 100.682 30.4415 100.354 29.3885 100.354C28.5672 100.354 27.8511 100.555 27.2404 100.958C26.6507 101.36 26.3559 101.996 26.3559 102.865V107.698C26.3559 108.567 26.6507 109.203 27.2404 109.606C27.8511 110.008 28.5672 110.21 29.3885 110.21Z" fill="#007BFF"/>
<path d="M47.9821 94.9787C46.9293 94.9787 46.192 94.7667 45.771 94.3428C45.3709 93.8977 45.1707 93.3678 45.1707 92.7531V91.831C45.1707 91.1952 45.3709 90.6653 45.771 90.2413C46.192 89.8174 46.9293 89.6055 47.9821 89.6055C49.0353 89.6055 49.7615 89.8174 50.1616 90.2413C50.583 90.6653 50.7935 91.1952 50.7935 91.831V92.7531C50.7935 93.3678 50.583 93.8977 50.1616 94.3428C49.7615 94.7667 49.0353 94.9787 47.9821 94.9787ZM40.4639 109.827H45.6444V100.733H40.4639V97.0771H50.3198V109.827H55.1215V113.483H40.4639V109.827Z" fill="#007BFF"/>
<path d="M57.2256 89.9551H61.9006V103.309H62.1217L64.3017 100.733L67.7131 97.077H73.0833L66.7653 103.563L73.7466 113.483H68.1872L63.4488 106.234L61.9006 107.792V113.483H57.2256V89.9551Z" fill="#007BFF"/>
<path d="M82.7685 113.866C80.0307 113.866 77.9565 113.103 76.5453 111.577C75.1345 110.051 74.4287 107.974 74.4287 105.345C74.4287 104.01 74.6077 102.812 74.9657 101.753C75.345 100.672 75.8714 99.7601 76.5453 99.0182C77.2405 98.2552 78.0722 97.6829 79.0408 97.3013C80.0307 96.8986 81.1362 96.6973 82.3578 96.6973C83.5793 96.6973 84.6742 96.8986 85.6432 97.3013C86.6119 97.6829 87.4333 98.234 88.1073 98.9547C88.7812 99.6753 89.297 100.555 89.655 101.594C90.0342 102.611 90.2235 103.756 90.2235 105.027V106.426H79.0727V106.712C79.0727 107.772 79.3988 108.631 80.0519 109.288C80.7046 109.924 81.663 110.242 82.9263 110.242C83.8953 110.242 84.727 110.061 85.4221 109.701C86.1169 109.32 86.7173 108.821 87.2225 108.207L89.7498 110.973C89.118 111.757 88.2335 112.435 87.0962 113.008C85.9592 113.58 84.5165 113.866 82.7685 113.866ZM82.3892 100.067C81.3785 100.067 80.5677 100.385 79.9571 101.021C79.3674 101.636 79.0727 102.473 79.0727 103.533V103.787H85.6432V103.533C85.6432 102.452 85.3482 101.604 84.7584 100.989C84.1899 100.375 83.4003 100.067 82.3892 100.067Z" fill="#007BFF"/>
<path d="M97.7477 113.775C96.8492 113.775 96.1996 113.582 95.7983 113.194C95.413 112.79 95.2207 112.314 95.2207 111.765V110.917C95.2207 110.368 95.413 109.899 95.7983 109.512C96.1996 109.108 96.8492 108.906 97.7477 108.906C98.6465 108.906 99.2882 109.108 99.6731 109.512C100.074 109.899 100.275 110.368 100.275 110.917V111.765C100.275 112.314 100.074 112.79 99.6731 113.194C99.2882 113.582 98.6465 113.775 97.7477 113.775Z" fill="#007BFF"/>
<path d="M113.283 113.866C111.472 113.866 109.893 113.591 108.545 113.039C107.218 112.488 106.218 111.736 105.544 110.782L108.166 108.334C108.798 109.033 109.535 109.584 110.377 109.987C111.241 110.369 112.22 110.56 113.315 110.56C114.242 110.56 114.968 110.422 115.495 110.146C116.021 109.849 116.284 109.404 116.284 108.811C116.284 108.345 116.105 108.027 115.747 107.857C115.389 107.666 114.894 107.518 114.263 107.412L111.641 106.999C110.904 106.893 110.219 106.734 109.588 106.522C108.956 106.288 108.408 105.981 107.945 105.6C107.482 105.218 107.113 104.752 106.839 104.201C106.565 103.65 106.428 102.982 106.428 102.198C106.428 100.481 107.081 99.1348 108.387 98.1598C109.693 97.1848 111.525 96.6973 113.884 96.6973C115.484 96.6973 116.842 96.9198 117.958 97.365C119.096 97.7889 120.001 98.4035 120.675 99.209L118.338 101.88C117.853 101.35 117.232 100.905 116.474 100.544C115.716 100.184 114.8 100.004 113.726 100.004C111.915 100.004 111.009 100.555 111.009 101.657C111.009 102.145 111.188 102.484 111.546 102.675C111.904 102.844 112.399 102.982 113.031 103.088L115.621 103.501C116.358 103.607 117.043 103.777 117.674 104.01C118.306 104.222 118.853 104.519 119.317 104.9C119.801 105.282 120.18 105.748 120.454 106.299C120.728 106.85 120.865 107.518 120.865 108.302C120.865 110.019 120.201 111.376 118.875 112.372C117.569 113.368 115.705 113.866 113.283 113.866Z" fill="#007BFF"/>
<path d="M123.728 89.9551H128.403V100.066H128.592C128.782 99.5993 129.014 99.1648 129.287 98.7621C129.561 98.3593 129.887 98.0096 130.267 97.7129C130.667 97.3949 131.119 97.1511 131.625 96.9816C132.151 96.7908 132.741 96.6954 133.394 96.6954C134.173 96.6954 134.889 96.8332 135.542 97.1088C136.195 97.3631 136.753 97.7553 137.216 98.2852C137.68 98.815 138.038 99.4615 138.29 100.225C138.564 100.988 138.701 101.867 138.701 102.864V113.483H134.025V103.499C134.025 101.38 133.11 100.32 131.277 100.32C130.919 100.32 130.561 100.373 130.203 100.479C129.866 100.564 129.561 100.712 129.287 100.924C129.014 101.115 128.792 101.359 128.624 101.655C128.477 101.952 128.403 102.302 128.403 102.705V113.483H123.728V89.9551Z" fill="#007BFF"/>
</g>
<defs>
<clipPath id="clip0_8_69">
<rect width="191" height="48" fill="white" transform="translate(3 76)"/>
</clipPath>
</defs>
</svg>
