<svg width="200" height="200" viewBox="0 0 200 200" fill="none" xmlns="http://www.w3.org/2000/svg">
<path d="M100 0C44.7711 0 0 44.7711 0 100C0 155.229 44.7711 200 100 200C155.229 200 200 155.229 200 100C200 44.7711 155.229 0 100 0Z" fill="#40B3E0"/>
<path d="M148.658 57.5241L130.797 147.576C130.797 147.576 128.3 153.822 121.43 150.824L80.213 119.224L65.2255 111.98L39.9958 103.487C39.9958 103.487 36.1239 102.113 35.7489 99.1155C35.3747 96.1178 40.1208 94.4944 40.1208 94.4944L140.415 55.1506C140.415 55.1506 148.658 51.5288 148.658 57.5241Z" fill="white"/>
<path d="M77.0452 146.565C77.0452 146.565 75.842 146.453 74.3428 141.706C72.8444 136.96 65.2256 111.98 65.2256 111.98L125.801 73.5113C125.801 73.5113 129.299 71.3879 129.174 73.5113C129.174 73.5113 129.798 73.8855 127.925 75.634C126.051 77.3832 80.3381 118.475 80.3381 118.475" fill="#D2E5F1"/>
<path d="M96.0168 131.34L79.7137 146.204C79.7137 146.204 78.4395 147.171 77.0449 146.565L80.1668 118.955" fill="#B5CFE4"/>
</svg>
