<svg width="200" height="200" viewBox="0 0 200 200" fill="none" xmlns="http://www.w3.org/2000/svg">
<g clip-path="url(#clip0_15_18)">
<path d="M170.543 29.0641C151.824 10.3328 126.934 0.0114284 100.416 0C45.7703 0 1.29987 44.4562 1.27799 99.0993C1.27163 116.566 5.83549 133.616 14.5101 148.646L0.445679 200L52.9998 186.22C67.4794 194.116 83.7825 198.277 100.373 198.284H100.415H100.416C155.052 198.284 199.53 153.82 199.553 99.1796C199.562 72.697 189.259 47.7968 170.543 29.0641V29.0641ZM100.416 181.546H100.384C85.5956 181.538 71.0939 177.568 58.4449 170.062L55.4347 168.278L24.248 176.454L32.5744 146.059L30.6131 142.942C22.3642 129.827 18.0095 114.669 18.0157 99.1056C18.0339 53.6881 54.996 16.7389 100.447 16.7389C122.457 16.748 143.143 25.3272 158.702 40.8961C174.259 56.4649 182.82 77.1614 182.814 99.1726C182.794 144.592 145.831 181.546 100.416 181.546V181.546Z" fill="#E0E0E0"/>
<path d="M4.9967 194.302L18.4187 145.293C10.1382 130.95 5.78363 114.678 5.78886 98.0121C5.81057 45.8662 48.25 3.44189 100.395 3.44189C125.703 3.45332 149.457 13.3027 167.316 31.1788C185.179 49.0549 195.011 72.816 195.001 98.0861C194.979 150.233 152.537 192.661 100.399 192.661C100.395 192.661 100.401 192.661 100.399 192.661H100.356C84.5236 192.656 68.9665 188.682 55.1492 181.151L4.9967 194.302V194.302Z" fill="url(#paint0_linear_15_18)"/>
<path fill-rule="evenodd" clip-rule="evenodd" d="M75.9178 57.0268C74.0837 52.949 72.1526 52.8674 70.4077 52.796C68.9804 52.7348 67.3465 52.7386 65.7152 52.7386C64.0825 52.7386 61.4295 53.3521 59.1859 55.8024C56.9411 58.2526 50.6146 64.176 50.6146 76.223C50.6146 88.2713 59.39 99.9128 60.6132 101.548C61.8377 103.181 77.553 128.693 102.442 138.508C123.126 146.665 127.336 145.042 131.825 144.634C136.315 144.226 146.312 138.712 148.353 132.994C150.394 127.277 150.394 122.377 149.782 121.352C149.169 120.332 147.537 119.72 145.088 118.495C142.639 117.271 130.601 111.346 128.356 110.53C126.111 109.713 124.478 109.305 122.846 111.757C121.213 114.206 116.523 119.72 115.095 121.352C113.666 122.989 112.237 123.193 109.789 121.968C107.34 120.74 99.4532 118.157 90.0975 109.815C82.8183 103.326 77.9037 95.3104 76.4752 92.859C75.0466 90.4101 76.322 89.0835 77.5504 87.8628C78.6499 86.7659 79.9994 85.0044 81.2239 83.5746C82.4457 82.1447 82.8539 81.1243 83.6702 79.4917C84.4865 77.8564 84.0784 76.4267 83.4661 75.2023C82.8539 73.9778 78.0951 61.8686 75.9178 57.0268V57.0268Z" fill="white"/>
<path d="M169.733 28.7492C151.229 10.2328 126.625 0.0302074 100.411 0.0186157C46.3928 0.0186157 2.4329 43.9645 2.41118 97.9803C2.40482 115.247 6.91627 132.101 15.4913 146.958L1.5885 197.723L53.5393 184.1C67.8529 191.906 83.9688 196.02 100.369 196.026H100.411H100.411C154.421 196.026 198.387 152.073 198.41 98.0593C198.419 71.8812 188.234 47.2668 169.733 28.7492V28.7492ZM100.411 179.481H100.379C85.7609 179.473 71.4256 175.548 58.922 168.129L55.9462 166.365L25.1175 174.447L33.3483 144.401L31.4095 141.32C23.2553 128.355 18.9506 113.372 18.9569 97.9868C18.9747 53.0907 55.5125 16.5657 100.442 16.5657C122.199 16.5746 142.648 25.0553 158.028 40.4455C173.406 55.8357 181.869 76.2945 181.863 98.0532C181.844 142.95 145.305 179.481 100.411 179.481Z" fill="white"/>
<g clip-path="url(#clip1_15_18)">
<path fill-rule="evenodd" clip-rule="evenodd" d="M-212.15 -1139C-347.45 -1138.9 -456.95 -1029.1 -456.85 -893.8C-456.95 -758.5 -347.35 -648.7 -212.05 -648.6H32.75V-893.7C32.85 -1029 -76.75 -1138.8 -212.15 -1139C-212.05 -1139 -212.05 -1139 -212.15 -1139V-1139ZM-212.15 -485H-864.75C-1000.05 -484.9 -1109.65 -375.1 -1109.55 -239.8C-1109.75 -104.5 -1000.15 5.3 -864.85 5.5H-212.15C-76.85 5.4 32.7499 -104.4 32.6499 -239.7C32.7499 -375.1 -76.85 -484.9 -212.15 -485V-485Z" fill="#36C5F0"/>
<path fill-rule="evenodd" clip-rule="evenodd" d="M1338.05 -239.8C1338.15 -375.1 1228.55 -484.9 1093.25 -485C957.95 -484.9 848.35 -375.1 848.45 -239.8V5.5H1093.25C1228.55 5.4 1338.15 -104.4 1338.05 -239.8ZM685.35 -239.8V-893.8C685.45 -1029 575.95 -1138.8 440.65 -1139C305.35 -1138.9 195.75 -1029.1 195.85 -893.8V-239.8C195.65 -104.5 305.25 5.3 440.55 5.5C575.85 5.4 685.45 -104.4 685.35 -239.8Z" fill="#2EB67D"/>
<path fill-rule="evenodd" clip-rule="evenodd" d="M440.55 1313.5C575.85 1313.4 685.45 1203.6 685.35 1068.3C685.45 933 575.85 823.2 440.55 823.1H195.75V1068.3C195.65 1203.5 305.25 1313.3 440.55 1313.5ZM440.55 659.4H1093.25C1228.55 659.3 1338.15 549.5 1338.05 414.2C1338.25 278.9 1228.65 169.1 1093.35 168.9H440.65C305.35 169 195.75 278.8 195.85 414.1C195.75 549.5 305.25 659.3 440.55 659.4V659.4Z" fill="#ECB22E"/>
<path fill-rule="evenodd" clip-rule="evenodd" d="M-1109.55 414.2C-1109.65 549.5 -1000.05 659.3 -864.75 659.4C-729.45 659.3 -619.85 549.5 -619.95 414.2V169H-864.75C-1000.05 169.1 -1109.65 278.9 -1109.55 414.2ZM-456.85 414.2V1068.2C-457.05 1203.5 -347.45 1313.3 -212.15 1313.5C-76.85 1313.4 32.75 1203.6 32.65 1068.3V414.4C32.85 279.1 -76.75 169.3 -212.05 169.1C-347.45 169.1 -456.95 278.9 -456.85 414.2C-456.85 414.3 -456.85 414.2 -456.85 414.2Z" fill="#E01E5A"/>
</g>
</g>
<defs>
<linearGradient id="paint0_linear_15_18" x1="99.9987" y1="194.302" x2="99.9987" y2="3.44221" gradientUnits="userSpaceOnUse">
<stop stop-color="#20B038"/>
<stop offset="1" stop-color="#60D66A"/>
</linearGradient>
<clipPath id="clip0_15_18">
<rect width="200" height="200" fill="white"/>
</clipPath>
<clipPath id="clip1_15_18">
<rect width="2452.5" height="2452.5" fill="white" transform="translate(-1112 -1139)"/>
</clipPath>
</defs>
</svg>
